<svg xmlns="http://www.w3.org/2000/svg" width="512" height="512" viewBox="0 0 18231 17997" style="shape-rendering:geometricPrecision; fill-rule:evenodd; clip-rule:evenodd">
 <g id="0020_1">
  <metadata id="Layer"/>
  <polygon fill="#83B511" points="200,4664 0,5022 7717,17997 8085,17990 13877,4355 13642,4093 "/>
  <polygon fill="#83B511" points="759,4664 559,5022 7877,17438 8245,17431 13877,4355 13642,4093 "/>
  <polygon fill="#9C4B1C" points="6756,4384 6788,4743 7717,17997 8085,17990 13877,4355 13642,4093 "/>
  <polygon fill="#261A37" points="4258,11305 3960,11679 7717,17997 8085,17990 8812,6233 8578,5971 "/>
  <polygon fill="#DB5B1E" points="5600,12378 3961,11683 7717,17997 8085,17990 11059,11231 10825,10969 "/>
  <polygon fill="#DB5B1E" points="5600,12378 4530,11985 7917,17558 8285,17551 11059,11510 10825,11248 "/>
  <polygon fill="#391DD8" points="11355,0 10945,5 4211,14960 4400,15275 18120,13549 18231,13215 "/>
  <polygon fill="#391DD8" points="8170,7289 7760,7294 4211,14960 4400,15275 11730,14370 11744,14114 10592,10960 14742,6977 9118,4974 "/>
  <polygon fill="#391DD8" points="8170,7289 4938,14475 5127,14791 11205,14148 11744,14034 10592,10960 14742,6977 9118,4974 "/>
  <polygon fill="#81AD11" points="14959,6914 14562,7123 10580,10946 11689,14052 11726,14367 18120,13549 18231,13215 "/>
  <polygon fill="#7EAA11" fill-opacity="0.501961" points="14589,7154 12400,9189 10579,10946 11689,14052 17457,13230 17568,12896 "/>
  <path fill="#EF7F1A" d="M11355 0l-410 5 -3248 7216 359 279 482 -1109c337,-774 723,-791 1962,-486l4078 1215 384 -205 -3606 -6915z"/>
  <path fill="#EF7F1A" d="M11412 876l-410 5 -1985 4484 -987 2099c83,-100 430,-941 508,-1073 429,-727 723,-791 1962,-486l4107 1172 -353 -481 -2841 -5720z"/>
  <polygon fill="#331D10" points="7047,9868 7165,9548 10579,10946 11679,14008 8943,12992 "/>
  <polygon fill="#FEFEFE" points="7165,9553 8456,6573 11429,7801 10146,10772 "/>
 </g>
</svg>
