<svg xmlns="http://www.w3.org/2000/svg" xml:space="preserve" width="120" height="118" style="shape-rendering:geometricPrecision;text-rendering:geometricPrecision;image-rendering:optimizeQuality;fill-rule:evenodd;clip-rule:evenodd" viewBox="0 0 18231 17997"><defs><style>.fil7{fill:#ef7f1a}.fil4{fill:#391dd8}.fil0{fill:#83b511}.fil3{fill:#db5b1e}</style></defs><g id="Warstwa_x0020_1"><path d="M200 4664 0 5022l7717 12975 368-7 5792-13635-235-262z" class="fil0"/><path d="m759 4664-200 358 7318 12416 368-7 5632-13076-235-262z" class="fil0"/><path d="m6756 4384 32 359 929 13254 368-7 5792-13635-235-262z" style="fill:#9c4b1c"/><path d="m4258 11305-298 374 3757 6318 368-7 727-11757-234-262z" style="fill:#261a37"/><path d="m5600 12378-1639-695 3756 6314 368-7 2974-6759-234-262z" class="fil3"/><path d="m5600 12378-1070-393 3387 5573 368-7 2774-6041-234-262z" class="fil3"/><path d="m11355 0-410 5-6734 14955 189 315 13720-1726 111-334z" class="fil4"/><path d="m8170 7289-410 5-3549 7666 189 315 7330-905 14-256-1152-3154 4150-3983-5624-2003z" class="fil4"/><path d="m8170 7289-3232 7186 189 316 6078-643 539-114-1152-3074 4150-3983-5624-2003z" class="fil4"/><path d="m14959 6914-397 209-3982 3823 1109 3106 37 315 6394-818 111-334z" style="fill:#81ad11"/><path d="m14589 7154-2189 2035-1821 1757 1110 3106 5768-822 111-334z" style="fill:#7eaa11;fill-opacity:.501961"/><path d="m11355 0-410 5-3248 7216 359 279 482-1109c337-774 723-791 1962-486l4078 1215 384-205L11356 0z" class="fil7"/><path d="m11412 876-410 5-1985 4484-987 2099c83-100 430-941 508-1073 429-727 723-791 1962-486l4107 1172-353-481-2841-5720z" class="fil7"/><path d="m7047 9868 118-320 3414 1398 1100 3062-2736-1016z" style="fill:#331d10"/><path d="m7165 9553 1291-2980 2973 1228-1283 2971z" style="fill:#fefefe"/></g></svg>